<svg width="812" height="446" viewBox="0 0 812 446" fill="none" xmlns="http://www.w3.org/2000/svg">
<path d="M377.285 214.002L377.503 214.126L139.945 357.197C116.382 336.394 95.2421 312.913 76.94 287.213L235.102 211.514L3.98229 103.381C-0.742469 69.1189 -1.26523 34.393 2.42599 0L377.809 213.702L377.285 214.002Z" fill="#108E09" fill-opacity="0.35"/>
<path d="M808.018 103.381L576.908 211.514L735.07 287.213C716.765 312.912 695.624 336.393 672.06 357.197L434.502 214.121L434.72 213.997L434.212 213.686L809.574 0C813.265 34.393 812.742 69.1189 808.018 103.381Z" fill="#108E09" fill-opacity="0.35"/>
<path d="M583.525 416.735C558.196 429.279 531.643 439.086 504.301 445.995C484.974 380.386 428.307 344.677 406 332.871C383.693 344.672 327.026 380.386 307.699 446C280.358 439.087 253.805 429.279 228.475 416.735C234.777 400.026 243.972 382.278 255.07 365.673C268.227 345.991 290.295 318.614 320.704 299.883C340.6 287.637 402.486 251.153 403.096 250.786L405.99 249.079L408.884 250.786C409.504 251.153 471.39 287.637 491.276 299.883C521.685 318.598 543.753 345.991 556.915 365.673C568.033 382.278 577.223 400.006 583.525 416.735Z" fill="#108E09" fill-opacity="0.35"/>
</svg>
