<svg width="256" height="64" viewBox="0 0 256 64" fill="none" xmlns="http://www.w3.org/2000/svg">
<g filter="url(#filter0_b_689_5766)">
<g clip-path="url(#clip0_689_5766)">
<path fill-rule="evenodd" clip-rule="evenodd" d="M0 5C0 2.23858 2.23858 0 5 0H175C177.761 0 180 2.23858 180 5V19C180 21.7614 182.239 24 185 24H187C189.761 24 192 21.7614 192 19V5C192 2.23858 194.239 0 197 0H251C253.761 0 256 2.23858 256 5V59C256 61.7614 253.761 64 251 64H197C194.239 64 192 61.7614 192 59V45C192 42.2386 189.761 40 187 40H185C182.239 40 180 42.2386 180 45V59C180 61.7614 177.761 64 175 64H5C2.23858 64 0 61.7614 0 59V5Z" fill="#187014" fill-opacity="0.3"/>
<path d="M216 40L232 24M232 24H216M232 24V40" stroke="#DFDFDF" stroke-linecap="square" stroke-linejoin="round"/>
<path d="M-2.12181 44.8676L-2.10565 44.8768L-19.6593 55.4422C-21.4004 53.9059 -22.9624 52.1719 -24.3148 50.274L-12.6279 44.6839L-29.7057 36.6985C-30.0549 34.1684 -30.0935 31.604 -29.8207 29.0642L-2.08311 44.8454L-2.12181 44.8676Z" fill="#108E09"/>
<path d="M17.0929 13.2913C16.1487 11.0782 14.7862 9.07496 13.0826 7.39524C9.57904 3.93546 4.88613 2 0.000749588 2C-4.88463 2 -9.57754 3.93546 -13.0811 7.39524C-14.7849 9.07501 -16.1478 11.0782 -17.0925 13.2913C-18.0733 15.5892 -18.5766 18.0681 -18.5709 20.5728C-18.5709 22.5766 -18.2861 24.4753 -17.7239 26.216C-17.1875 27.8608 -16.4023 29.4106 -15.3965 30.8098C-13.6678 33.2333 -11.2171 35.4307 -7.68903 37.722L-7.68039 37.7277L-7.67137 37.7331L0 42.1966L7.67174 37.7331L7.68076 37.7277L7.68941 37.722C11.2175 35.4307 13.6666 33.2348 15.3968 30.8098C16.4024 29.4105 17.1875 27.8607 17.7239 26.216C18.2876 24.4753 18.5709 22.5766 18.5709 20.5728C18.5765 18.0681 18.0733 15.5892 17.0929 13.2913ZM0 36.0764C-2.34467 34.9224 -12.7775 29.3021 -12.7775 20.7286C-12.7775 13.7717 -6.92501 7.89323 0.00225449 7.8917H0.00488377C6.92802 7.8917 12.7775 13.7728 12.7775 20.7286C12.7775 29.2971 2.33602 34.9262 0 36.0764Z" fill="#108E09"/>
<path d="M29.7057 36.6985L12.6287 44.6839L24.3155 50.274C22.9629 52.1718 21.4008 53.9058 19.6596 55.4422L2.10603 44.8764L2.12219 44.8672L2.08461 44.8443L29.8207 29.0642C30.0935 31.604 30.0549 34.1684 29.7057 36.6985Z" fill="#108E09"/>
<path d="M13.1176 59.8389C11.246 60.7652 9.28394 61.4894 7.26362 61.9996C5.83555 57.1546 1.6483 54.5176 2.86102e-06 53.6457C-1.64829 54.5172 -5.83555 57.1546 -7.26362 62C-9.2839 61.4895 -11.2459 60.7652 -13.1176 59.8389C-12.652 58.605 -11.9725 57.2943 -11.1525 56.0681C-10.1803 54.6146 -8.54963 52.5929 -6.30267 51.2097C-4.83251 50.3053 -0.259682 47.6111 -0.214585 47.584L-0.000749588 47.458L0.213083 47.584C0.258932 47.6111 4.83176 50.3053 6.30117 51.2097C8.54813 52.5917 10.1788 54.6146 11.1514 56.0681C11.9729 57.2943 12.652 58.6035 13.1176 59.8389Z" fill="#108E09"/>
</g>
</g>
<defs>
<filter id="filter0_b_689_5766" x="-100" y="-100" width="456" height="264" filterUnits="userSpaceOnUse" color-interpolation-filters="sRGB">
<feFlood flood-opacity="0" result="BackgroundImageFix"/>
<feGaussianBlur in="BackgroundImageFix" stdDeviation="50"/>
<feComposite in2="SourceAlpha" operator="in" result="effect1_backgroundBlur_689_5766"/>
<feBlend mode="normal" in="SourceGraphic" in2="effect1_backgroundBlur_689_5766" result="shape"/>
</filter>
<clipPath id="clip0_689_5766">
<rect width="256" height="64" rx="5" fill="white"/>
</clipPath>
</defs>
</svg>
