<svg width="354" height="428" viewBox="0 0 354 428" fill="none" xmlns="http://www.w3.org/2000/svg">
<path d="M122.188 305.789L122.304 305.854L-4.37437 381.221C-16.9394 370.262 -28.2121 357.893 -37.9716 344.355L46.3687 304.478L-76.8764 247.516C-79.3959 229.468 -79.6747 211.175 -77.7063 193.058L122.467 305.631L122.188 305.789Z" fill="url(#paint0_linear_74_131)" fill-opacity="0.15"/>
<path d="M260.854 80.5444C254.04 64.7577 244.207 50.468 231.913 38.4861C206.629 13.8063 172.762 0 137.505 0C102.249 0 68.3821 13.8063 43.0979 38.4861C30.8022 50.4684 20.9668 64.7578 14.1491 80.5444C7.07137 96.936 3.43911 114.619 3.4798 132.486C3.4798 146.78 5.53557 160.324 9.59284 172.741C13.4635 184.474 19.1301 195.529 26.3888 205.51C38.8643 222.797 56.5498 238.472 82.0108 254.817L82.0732 254.858L82.1383 254.896L137.5 286.736L192.864 254.896L192.93 254.858L192.992 254.817C218.453 238.472 236.128 222.808 248.614 205.51C255.871 195.528 261.536 184.473 265.407 172.741C269.475 160.324 271.52 146.78 271.52 132.486C271.561 114.619 267.929 96.9366 260.854 80.5444ZM137.5 243.079C120.579 234.846 45.2893 194.755 45.2893 133.597C45.2893 83.9714 87.5245 42.0384 137.516 42.0275H137.535C187.497 42.0275 229.711 83.9795 229.711 133.597C229.711 194.719 154.358 234.873 137.5 243.079Z" fill="url(#paint1_linear_74_131)" fill-opacity="0.15"/>
<path d="M351.876 247.516L228.637 304.478L312.977 344.355C303.216 357.892 291.942 370.262 279.377 381.221L152.699 305.851L152.815 305.786L152.544 305.623L352.706 193.058C354.675 211.175 354.396 229.468 351.876 247.516Z" fill="url(#paint2_linear_74_131)" fill-opacity="0.15"/>
<path d="M232.165 412.584C218.659 419.192 204.499 424.358 189.919 427.997C179.613 393.436 149.395 374.626 137.5 368.406C125.605 374.623 95.3868 393.436 85.0809 428C70.5012 424.358 56.3418 419.192 42.8348 412.584C46.1951 403.782 51.0985 394.433 57.0163 385.686C64.0325 375.317 75.8002 360.896 92.0157 351.029C102.625 344.578 135.626 325.359 135.951 325.166L137.495 324.267L139.038 325.166C139.369 325.359 172.369 344.578 182.973 351.029C199.189 360.888 210.957 375.317 217.976 385.686C223.904 394.433 228.805 403.771 232.165 412.584Z" fill="url(#paint3_linear_74_131)" fill-opacity="0.15"/>
<defs>
<linearGradient id="paint0_linear_74_131" x1="-79" y1="214" x2="354" y2="214" gradientUnits="userSpaceOnUse">
<stop offset="0.25" stop-color="#052803" stop-opacity="0"/>
<stop offset="0.5" stop-color="#108E09" stop-opacity="0.7"/>
<stop offset="0.6" stop-color="#108E09"/>
</linearGradient>
<linearGradient id="paint1_linear_74_131" x1="-79" y1="214" x2="354" y2="214" gradientUnits="userSpaceOnUse">
<stop offset="0.25" stop-color="#052803" stop-opacity="0"/>
<stop offset="0.5" stop-color="#108E09" stop-opacity="0.7"/>
<stop offset="0.6" stop-color="#108E09"/>
</linearGradient>
<linearGradient id="paint2_linear_74_131" x1="-79" y1="214" x2="354" y2="214" gradientUnits="userSpaceOnUse">
<stop offset="0.25" stop-color="#052803" stop-opacity="0"/>
<stop offset="0.5" stop-color="#108E09" stop-opacity="0.7"/>
<stop offset="0.6" stop-color="#108E09"/>
</linearGradient>
<linearGradient id="paint3_linear_74_131" x1="-79" y1="214" x2="354" y2="214" gradientUnits="userSpaceOnUse">
<stop offset="0.25" stop-color="#052803" stop-opacity="0"/>
<stop offset="0.5" stop-color="#108E09" stop-opacity="0.7"/>
<stop offset="0.6" stop-color="#108E09"/>
</linearGradient>
</defs>
</svg>
