<svg width="150" height="190" viewBox="0 0 150 190" fill="none" xmlns="http://www.w3.org/2000/svg">
<path d="M138.926 106.623L139.007 106.669L51.5313 159.32C42.8548 151.664 35.0707 143.023 28.3314 133.566L86.571 105.708L1.46639 65.9144C-0.273397 53.3058 -0.465892 40.5265 0.893316 27.8697L139.119 106.513L138.926 106.623Z" fill="#108E09" fill-opacity="0.2"/>
<path d="M234.679 -50.7319C229.974 -61.7604 223.185 -71.7431 214.695 -80.1137C197.236 -97.355 173.849 -107 149.504 -107C125.158 -107 101.772 -97.355 84.3124 -80.1137C75.8218 -71.7428 69.0302 -61.7603 64.3224 -50.7319C59.435 -39.2807 56.9268 -26.9274 56.9549 -14.4456C56.9549 -4.46007 58.3744 5.00211 61.1761 13.6764C63.8489 21.8729 67.7619 29.5962 72.7742 36.5687C81.389 48.6458 93.6014 59.5961 111.183 71.0147L111.226 71.0432L111.271 71.0699L149.5 93.3132L187.731 71.0699L187.776 71.0432L187.819 71.0147C205.4 59.5961 217.605 48.6534 226.228 36.5687C231.239 29.5957 235.151 21.8725 237.824 13.6764C240.633 5.00211 242.045 -4.46007 242.045 -14.4456C242.073 -26.9272 239.565 -39.2803 234.679 -50.7319ZM149.5 62.8143C137.816 57.0631 85.8256 29.0553 85.8256 -13.6691C85.8256 -48.3378 114.99 -77.6321 149.511 -77.6397H149.524C184.025 -77.6397 213.174 -48.3321 213.174 -13.6691C213.174 29.0305 161.141 57.0821 149.5 62.8143Z" fill="#108E09" fill-opacity="0.2"/>
<path d="M297.534 65.9144L212.433 105.708L270.672 133.566C263.932 143.023 256.147 151.664 247.471 159.32L159.995 106.667L160.076 106.622L159.888 106.507L298.107 27.8697C299.466 40.5265 299.273 53.3058 297.534 65.9144Z" fill="#108E09" fill-opacity="0.2"/>
<path d="M214.869 181.23C205.543 185.847 195.765 189.456 185.697 191.998C178.58 167.854 157.714 154.713 149.5 150.368C141.286 154.711 120.42 167.854 113.303 192C103.235 189.456 93.4577 185.846 84.1307 181.23C86.4511 175.082 89.8371 168.55 93.9235 162.439C98.7684 155.196 106.894 145.121 118.092 138.228C125.418 133.722 148.206 120.295 148.431 120.16L149.496 119.532L150.562 120.16C150.79 120.295 173.578 133.722 180.901 138.228C192.098 145.115 200.224 155.196 205.071 162.439C209.165 168.55 212.549 175.074 214.869 181.23Z" fill="#108E09" fill-opacity="0.2"/>
</svg>
