<svg width="302" height="299" viewBox="0 0 302 299" fill="none" xmlns="http://www.w3.org/2000/svg">
<path d="M140.32 213.623L140.402 213.669L52.0484 266.32C43.2848 258.664 35.4225 250.023 28.6156 240.566L87.4396 212.708L1.4811 172.914C-0.27614 160.306 -0.470567 147.526 0.902279 134.87L140.515 213.513L140.32 213.623Z" fill="url(#paint0_linear_156_116)" fill-opacity="0.15"/>
<path d="M237.034 56.2681C232.282 45.2396 225.424 35.2569 216.849 26.8863C199.215 9.64502 175.594 0 151.004 0C126.414 0 102.793 9.64502 85.1583 26.8863C76.5826 35.2572 69.7228 45.2397 64.9678 56.2681C60.0313 67.7193 57.4979 80.0726 57.5263 92.5544C57.5263 102.54 58.9601 112.002 61.7899 120.676C64.4895 128.873 68.4417 136.596 73.5044 143.569C82.2056 155.646 94.5405 166.596 112.299 178.015L112.342 178.043L112.387 178.07L151 200.313L189.614 178.07L189.66 178.043L189.703 178.015C207.461 166.596 219.789 155.653 228.498 143.569C233.559 136.596 237.51 128.872 240.21 120.676C243.047 112.002 244.474 102.54 244.474 92.5544C244.502 80.0728 241.969 67.7197 237.034 56.2681ZM151 169.814C139.199 164.063 86.6867 136.055 86.6867 93.3309C86.6867 58.6622 116.144 29.3679 151.011 29.3603H151.025C185.871 29.3603 215.313 58.6679 215.313 93.3309C215.313 136.031 162.758 164.082 151 169.814Z" fill="url(#paint1_linear_156_116)" fill-opacity="0.15"/>
<path d="M300.519 172.914L214.564 212.708L273.388 240.566C266.58 250.023 258.717 258.664 249.954 266.32L161.6 213.667L161.682 213.622L161.493 213.507L301.098 134.87C302.471 147.526 302.276 160.306 300.519 172.914Z" fill="url(#paint2_linear_156_116)" fill-opacity="0.15"/>
<path d="M217.025 288.23C207.605 292.847 197.729 296.456 187.56 298.998C180.372 274.854 159.296 261.713 151 257.368C142.704 261.711 121.628 274.854 114.44 299C104.271 296.456 94.3954 292.846 84.9749 288.23C87.3185 282.082 90.7385 275.55 94.8659 269.439C99.7594 262.196 107.967 252.121 119.277 245.228C126.676 240.722 149.693 227.295 149.92 227.16L150.996 226.532L152.073 227.16C152.303 227.295 175.32 240.722 182.716 245.228C194.026 252.115 202.233 262.196 207.128 269.439C211.263 275.55 214.682 282.074 217.025 288.23Z" fill="url(#paint3_linear_156_116)" fill-opacity="0.15"/>
<defs>
<linearGradient id="paint0_linear_156_116" x1="151" y1="299" x2="151" y2="0" gradientUnits="userSpaceOnUse">
<stop stop-color="#052803" stop-opacity="0"/>
<stop offset="0.5" stop-color="#108E09" stop-opacity="0.7"/>
<stop offset="0.6" stop-color="#108E09"/>
</linearGradient>
<linearGradient id="paint1_linear_156_116" x1="151" y1="299" x2="151" y2="0" gradientUnits="userSpaceOnUse">
<stop stop-color="#052803" stop-opacity="0"/>
<stop offset="0.5" stop-color="#108E09" stop-opacity="0.7"/>
<stop offset="0.6" stop-color="#108E09"/>
</linearGradient>
<linearGradient id="paint2_linear_156_116" x1="151" y1="299" x2="151" y2="0" gradientUnits="userSpaceOnUse">
<stop stop-color="#052803" stop-opacity="0"/>
<stop offset="0.5" stop-color="#108E09" stop-opacity="0.7"/>
<stop offset="0.6" stop-color="#108E09"/>
</linearGradient>
<linearGradient id="paint3_linear_156_116" x1="151" y1="299" x2="151" y2="0" gradientUnits="userSpaceOnUse">
<stop stop-color="#052803" stop-opacity="0"/>
<stop offset="0.5" stop-color="#108E09" stop-opacity="0.7"/>
<stop offset="0.6" stop-color="#108E09"/>
</linearGradient>
</defs>
</svg>
