<svg width="157" height="41" viewBox="0 0 157 41" fill="none" xmlns="http://www.w3.org/2000/svg">
<path d="M1.30812 25L1.34012 2.6H9.78812C13.0521 2.6 14.4601 4.328 14.4601 6.792V9.032C14.3321 12.712 13.3721 14.856 12.0601 16.2C13.2441 17.48 14.2041 19.08 14.3001 20.808C14.3001 23.624 13.0521 25 9.62812 25H1.30812ZM5.72412 18.792L5.75612 20.84H9.37212C9.91612 20.84 10.1401 20.52 10.1401 20.104C10.1401 19.176 9.62812 18.536 8.92412 18.056C7.83612 18.376 6.74812 18.568 5.72412 18.792ZM5.78812 14.568C8.73212 14.024 10.3001 13.256 10.3001 9.032C10.3001 8.2 10.4281 6.856 9.53212 6.76H5.82012L5.78812 14.568ZM21.8269 2.6H34.1149V6.44H26.3069V11.24C28.2589 10.536 30.6589 10.376 33.2189 10.536V14.664C30.9789 14.504 28.0989 14.6 26.3069 15.656V21.16H34.1789V25H21.8269V2.6ZM41.5331 2.6H46.0131C46.0131 2.6 48.2531 8.424 50.3331 14.152L50.3971 11.176L50.1731 2.664H54.6531V25.064H53.8851C53.8851 25.096 53.8851 25.128 53.8531 25.128L51.9971 25.064H50.1731V25H50.1411L46.0131 13.608V25H41.5331V2.6ZM62.0206 2.6H74.3086V6.44H66.5006V11.24C68.4526 10.536 70.8526 10.376 73.4126 10.536V14.664C71.1726 14.504 68.2926 14.6 66.5006 15.656V21.16H74.3726V25H62.0206V2.6ZM94.8789 2.6V6.44H90.2069V25H85.7269V6.44H81.0869V2.6H94.8789ZM114.741 2.6V6.44H110.069V25H105.589V6.44H100.949V2.6H114.741ZM127.884 5.832C125.804 5.832 125.9 8.232 125.932 9.352V9.64V18.024C125.932 18.952 125.932 21.832 127.884 21.832H128.524C130.732 21.832 130.732 18.952 130.732 18.024V9.64V9.384C130.764 8.296 130.86 5.832 128.524 5.832H127.884ZM121.452 18.344V9.32C121.452 6.184 122.7 2.376 127.436 2.376H129.228C133.964 2.376 135.212 6.184 135.212 9.32V18.344C135.212 21.48 133.964 25.288 129.228 25.288H127.436C122.7 25.288 121.452 21.48 121.452 18.344ZM142.564 2.6H147.044C147.044 2.6 149.284 8.424 151.364 14.152L151.428 11.176L151.204 2.664H155.684V25.064H154.916C154.916 25.096 154.916 25.128 154.884 25.128L153.028 25.064H151.204V25H151.172L147.044 13.608V25H142.564V2.6Z" fill="#DFDFDF"/>
<path d="M7.5625 33.1367V34.0566H2.94531V33.1367H7.5625ZM3.12109 29.4688V38H1.99023V29.4688H3.12109ZM8.54688 29.4688V38H7.42188V29.4688H8.54688ZM13.7709 36.916V33.6523C13.7709 33.4023 13.7201 33.1855 13.6185 33.002C13.5209 32.8145 13.3724 32.6699 13.1732 32.5684C12.974 32.4668 12.7279 32.416 12.4349 32.416C12.1615 32.416 11.9213 32.4629 11.7142 32.5566C11.5111 32.6504 11.3509 32.7734 11.2338 32.9258C11.1205 33.0781 11.0638 33.2422 11.0638 33.418H9.97984C9.97984 33.1914 10.0384 32.9668 10.1556 32.7441C10.2728 32.5215 10.4408 32.3203 10.6595 32.1406C10.8822 31.957 11.1478 31.8125 11.4564 31.707C11.7689 31.5977 12.1166 31.543 12.4994 31.543C12.9603 31.543 13.3666 31.6211 13.7181 31.7773C14.0736 31.9336 14.3509 32.1699 14.5502 32.4863C14.7533 32.7988 14.8548 33.1914 14.8548 33.6641V36.6172C14.8548 36.8281 14.8724 37.0527 14.9076 37.291C14.9466 37.5293 15.0033 37.7344 15.0775 37.9062V38H13.9466C13.892 37.875 13.849 37.709 13.8177 37.502C13.7865 37.291 13.7709 37.0957 13.7709 36.916ZM13.9584 34.1562L13.9701 34.918H12.8744C12.5658 34.918 12.2904 34.9434 12.0482 34.9941C11.806 35.041 11.6029 35.1133 11.4388 35.2109C11.2748 35.3086 11.1498 35.4316 11.0638 35.5801C10.9779 35.7246 10.9349 35.8945 10.9349 36.0898C10.9349 36.2891 10.9798 36.4707 11.0697 36.6348C11.1595 36.7988 11.2943 36.9297 11.474 37.0273C11.6576 37.1211 11.8822 37.168 12.1478 37.168C12.4798 37.168 12.7728 37.0977 13.0267 36.957C13.2806 36.8164 13.4818 36.6445 13.6302 36.4414C13.7826 36.2383 13.8646 36.041 13.8763 35.8496L14.3392 36.3711C14.3119 36.5352 14.2377 36.7168 14.1166 36.916C13.9955 37.1152 13.8334 37.3066 13.6302 37.4902C13.431 37.6699 13.1927 37.8203 12.9154 37.9414C12.642 38.0586 12.3334 38.1172 11.9896 38.1172C11.5599 38.1172 11.183 38.0332 10.8588 37.8652C10.5384 37.6973 10.2884 37.4727 10.1088 37.1914C9.93297 36.9062 9.84508 36.5879 9.84508 36.2363C9.84508 35.8965 9.91148 35.5977 10.0443 35.3398C10.1771 35.0781 10.3685 34.8613 10.6185 34.6895C10.8685 34.5137 11.1693 34.3809 11.5209 34.291C11.8724 34.2012 12.265 34.1562 12.6986 34.1562H13.9584ZM17.3718 36.2832L20.2956 31.6602H21.3855V38H20.2956V33.377L17.3718 38H16.2937V31.6602H17.3718V36.2832ZM19.7038 29.3633H20.5827C20.5827 29.668 20.5124 29.9395 20.3718 30.1777C20.2312 30.4121 20.03 30.5957 19.7683 30.7285C19.5066 30.8613 19.196 30.9277 18.8366 30.9277C18.2937 30.9277 17.864 30.7832 17.5476 30.4941C17.2351 30.2012 17.0788 29.8242 17.0788 29.3633H17.9577C17.9577 29.5938 18.0241 29.7969 18.157 29.9727C18.2898 30.1484 18.5163 30.2363 18.8366 30.2363C19.1491 30.2363 19.3718 30.1484 19.5046 29.9727C19.6374 29.7969 19.7038 29.5938 19.7038 29.3633ZM23.9434 31.6602V38H22.8595V31.6602H23.9434ZM28.1036 31.6602L25.0977 35.293H23.5802L23.4161 34.3438H24.6583L26.7852 31.6602H28.1036ZM26.9376 38L24.6055 35.1289L25.3028 34.3438L28.3145 38H26.9376ZM29.9819 32.8789V40.4375H28.892V31.6602H29.8881L29.9819 32.8789ZM34.2534 34.7773V34.9004C34.2534 35.3613 34.1987 35.7891 34.0893 36.1836C33.9799 36.5742 33.8198 36.9141 33.6088 37.2031C33.4018 37.4922 33.1459 37.7168 32.8412 37.877C32.5366 38.0371 32.187 38.1172 31.7924 38.1172C31.3901 38.1172 31.0346 38.0508 30.726 37.918C30.4174 37.7852 30.1557 37.5918 29.9409 37.3379C29.726 37.084 29.5541 36.7793 29.4252 36.4238C29.3002 36.0684 29.2143 35.668 29.1674 35.2227V34.5664C29.2143 34.0977 29.3022 33.6777 29.4311 33.3066C29.56 32.9355 29.7299 32.6191 29.9409 32.3574C30.1557 32.0918 30.4155 31.8906 30.7202 31.7539C31.0248 31.6133 31.3764 31.543 31.7748 31.543C32.1733 31.543 32.5268 31.6211 32.8354 31.7773C33.144 31.9297 33.4037 32.1484 33.6147 32.4336C33.8256 32.7188 33.9838 33.0605 34.0893 33.459C34.1987 33.8535 34.2534 34.293 34.2534 34.7773ZM33.1635 34.9004V34.7773C33.1635 34.4609 33.1303 34.1641 33.0639 33.8867C32.9975 33.6055 32.894 33.3594 32.7534 33.1484C32.6166 32.9336 32.4409 32.7656 32.226 32.6445C32.0112 32.5195 31.7553 32.457 31.4584 32.457C31.185 32.457 30.9467 32.5039 30.7436 32.5977C30.5444 32.6914 30.3745 32.8184 30.2338 32.9785C30.0932 33.1348 29.978 33.3145 29.8881 33.5176C29.8022 33.7168 29.7377 33.9238 29.6948 34.1387V35.6562C29.7729 35.9297 29.8823 36.1875 30.0229 36.4297C30.1635 36.668 30.351 36.8613 30.5854 37.0098C30.8198 37.1543 31.1147 37.2266 31.4702 37.2266C31.7631 37.2266 32.0151 37.166 32.226 37.0449C32.4409 36.9199 32.6166 36.75 32.7534 36.5352C32.894 36.3203 32.9975 36.0742 33.0639 35.7969C33.1303 35.5156 33.1635 35.2168 33.1635 34.9004ZM39.0145 36.916V33.6523C39.0145 33.4023 38.9637 33.1855 38.8621 33.002C38.7645 32.8145 38.616 32.6699 38.4168 32.5684C38.2176 32.4668 37.9715 32.416 37.6785 32.416C37.4051 32.416 37.1648 32.4629 36.9578 32.5566C36.7547 32.6504 36.5945 32.7734 36.4773 32.9258C36.3641 33.0781 36.3074 33.2422 36.3074 33.418H35.2234C35.2234 33.1914 35.282 32.9668 35.3992 32.7441C35.5164 32.5215 35.6844 32.3203 35.9031 32.1406C36.1258 31.957 36.3914 31.8125 36.7 31.707C37.0125 31.5977 37.3602 31.543 37.743 31.543C38.2039 31.543 38.6102 31.6211 38.9617 31.7773C39.3172 31.9336 39.5945 32.1699 39.7938 32.4863C39.9969 32.7988 40.0984 33.1914 40.0984 33.6641V36.6172C40.0984 36.8281 40.116 37.0527 40.1512 37.291C40.1902 37.5293 40.2469 37.7344 40.3211 37.9062V38H39.1902C39.1355 37.875 39.0926 37.709 39.0613 37.502C39.0301 37.291 39.0145 37.0957 39.0145 36.916ZM39.202 34.1562L39.2137 34.918H38.118C37.8094 34.918 37.534 34.9434 37.2918 34.9941C37.0496 35.041 36.8465 35.1133 36.6824 35.2109C36.5184 35.3086 36.3934 35.4316 36.3074 35.5801C36.2215 35.7246 36.1785 35.8945 36.1785 36.0898C36.1785 36.2891 36.2234 36.4707 36.3133 36.6348C36.4031 36.7988 36.5379 36.9297 36.7176 37.0273C36.9012 37.1211 37.1258 37.168 37.3914 37.168C37.7234 37.168 38.0164 37.0977 38.2703 36.957C38.5242 36.8164 38.7254 36.6445 38.8738 36.4414C39.0262 36.2383 39.1082 36.041 39.1199 35.8496L39.5828 36.3711C39.5555 36.5352 39.4813 36.7168 39.3602 36.916C39.2391 37.1152 39.077 37.3066 38.8738 37.4902C38.6746 37.6699 38.4363 37.8203 38.159 37.9414C37.8855 38.0586 37.577 38.1172 37.2332 38.1172C36.8035 38.1172 36.4266 38.0332 36.1023 37.8652C35.782 37.6973 35.532 37.4727 35.3523 37.1914C35.1766 36.9062 35.0887 36.5879 35.0887 36.2363C35.0887 35.8965 35.1551 35.5977 35.2879 35.3398C35.4207 35.0781 35.6121 34.8613 35.8621 34.6895C36.1121 34.5137 36.4129 34.3809 36.7645 34.291C37.116 34.2012 37.5086 34.1562 37.9422 34.1562H39.202ZM50.256 37.1094L50.1505 39.8809H49.1838V38H48.3576V37.1094H50.256ZM41.4728 31.6602H42.5568V37.1094H44.8771V31.6602H45.967V37.1094H48.2814V31.6602H49.3654V38H41.4728V31.6602ZM53.7222 38.1172C53.2808 38.1172 52.8804 38.043 52.521 37.8945C52.1655 37.7422 51.8589 37.5293 51.6011 37.2559C51.3472 36.9824 51.1519 36.6582 51.0152 36.2832C50.8784 35.9082 50.8101 35.498 50.8101 35.0527V34.8066C50.8101 34.291 50.8862 33.832 51.0386 33.4297C51.1909 33.0234 51.398 32.6797 51.6597 32.3984C51.9214 32.1172 52.2183 31.9043 52.5503 31.7598C52.8823 31.6152 53.2261 31.543 53.5816 31.543C54.0347 31.543 54.4253 31.6211 54.7534 31.7773C55.0855 31.9336 55.357 32.1523 55.5679 32.4336C55.7788 32.7109 55.9351 33.0391 56.0366 33.418C56.1382 33.793 56.189 34.2031 56.189 34.6484V35.1348H51.4546V34.25H55.105V34.168C55.0894 33.8867 55.0308 33.6133 54.9292 33.3477C54.8316 33.082 54.6753 32.8633 54.4605 32.6914C54.2456 32.5195 53.9527 32.4336 53.5816 32.4336C53.3355 32.4336 53.1089 32.4863 52.9019 32.5918C52.6948 32.6934 52.5171 32.8457 52.3687 33.0488C52.2202 33.252 52.105 33.5 52.023 33.793C51.9409 34.0859 51.8999 34.4238 51.8999 34.8066V35.0527C51.8999 35.3535 51.9409 35.6367 52.023 35.9023C52.1089 36.1641 52.232 36.3945 52.3921 36.5938C52.5562 36.793 52.7534 36.9492 52.9839 37.0625C53.2183 37.1758 53.4839 37.2324 53.7808 37.2324C54.1636 37.2324 54.4878 37.1543 54.7534 36.998C55.0191 36.8418 55.2515 36.6328 55.4507 36.3711L56.107 36.8926C55.9702 37.0996 55.7964 37.2969 55.5855 37.4844C55.3745 37.6719 55.1148 37.8242 54.8062 37.9414C54.5015 38.0586 54.1402 38.1172 53.7222 38.1172ZM58.079 36.7109V37.584C58.079 37.9395 57.9891 38.3145 57.8095 38.709C57.6298 39.1074 57.3778 39.4395 57.0536 39.7051L56.4384 39.2773C56.5634 39.1055 56.6688 38.9297 56.7548 38.75C56.8407 38.5742 56.9052 38.3906 56.9481 38.1992C56.995 38.0117 57.0184 37.8125 57.0184 37.6016V36.7109H58.079ZM70.5309 37.1094L70.4254 39.8809H69.4586V38H68.6324V37.1094H70.5309ZM61.7477 31.6602H62.8316V37.1094H65.152V31.6602H66.2418V37.1094H68.5563V31.6602H69.6402V38H61.7477V31.6602ZM71.0088 34.9004V34.7656C71.0088 34.3086 71.0752 33.8848 71.208 33.4941C71.3408 33.0996 71.5322 32.7578 71.7822 32.4688C72.0322 32.1758 72.3349 31.9492 72.6904 31.7891C73.0459 31.625 73.4443 31.543 73.8857 31.543C74.331 31.543 74.7314 31.625 75.0869 31.7891C75.4463 31.9492 75.7509 32.1758 76.0009 32.4688C76.2548 32.7578 76.4482 33.0996 76.581 33.4941C76.7138 33.8848 76.7802 34.3086 76.7802 34.7656V34.9004C76.7802 35.3574 76.7138 35.7812 76.581 36.1719C76.4482 36.5625 76.2548 36.9043 76.0009 37.1973C75.7509 37.4863 75.4482 37.7129 75.0927 37.877C74.7412 38.0371 74.3427 38.1172 73.8974 38.1172C73.4521 38.1172 73.0517 38.0371 72.6963 37.877C72.3408 37.7129 72.0361 37.4863 71.7822 37.1973C71.5322 36.9043 71.3408 36.5625 71.208 36.1719C71.0752 35.7812 71.0088 35.3574 71.0088 34.9004ZM72.0927 34.7656V34.9004C72.0927 35.2168 72.1298 35.5156 72.2041 35.7969C72.2783 36.0742 72.3896 36.3203 72.538 36.5352C72.6904 36.75 72.8798 36.9199 73.1064 37.0449C73.333 37.166 73.5966 37.2266 73.8974 37.2266C74.1943 37.2266 74.4541 37.166 74.6767 37.0449C74.9033 36.9199 75.0908 36.75 75.2392 36.5352C75.3877 36.3203 75.499 36.0742 75.5732 35.7969C75.6513 35.5156 75.6904 35.2168 75.6904 34.9004V34.7656C75.6904 34.4531 75.6513 34.1582 75.5732 33.8809C75.499 33.5996 75.3857 33.3516 75.2334 33.1367C75.0849 32.918 74.8974 32.7461 74.6709 32.6211C74.4482 32.4961 74.1865 32.4336 73.8857 32.4336C73.5888 32.4336 73.3271 32.4961 73.1005 32.6211C72.8779 32.7461 72.6904 32.918 72.538 33.1367C72.3896 33.3516 72.2783 33.5996 72.2041 33.8809C72.1298 34.1582 72.0927 34.4531 72.0927 34.7656ZM84.0407 36.5586L86.197 31.6602H87.2399L84.4157 38H83.6657L80.8532 31.6602H81.8962L84.0407 36.5586ZM81.5798 31.6602V38H80.4958V31.6602H81.5798ZM86.4665 38V31.6602H87.5563V38H86.4665ZM88.6553 34.9004V34.7656C88.6553 34.3086 88.7217 33.8848 88.8545 33.4941C88.9873 33.0996 89.1787 32.7578 89.4287 32.4688C89.6787 32.1758 89.9815 31.9492 90.337 31.7891C90.6924 31.625 91.0909 31.543 91.5323 31.543C91.9776 31.543 92.378 31.625 92.7334 31.7891C93.0928 31.9492 93.3975 32.1758 93.6475 32.4688C93.9014 32.7578 94.0948 33.0996 94.2276 33.4941C94.3604 33.8848 94.4268 34.3086 94.4268 34.7656V34.9004C94.4268 35.3574 94.3604 35.7812 94.2276 36.1719C94.0948 36.5625 93.9014 36.9043 93.6475 37.1973C93.3975 37.4863 93.0948 37.7129 92.7393 37.877C92.3877 38.0371 91.9893 38.1172 91.544 38.1172C91.0987 38.1172 90.6983 38.0371 90.3428 37.877C89.9873 37.7129 89.6827 37.4863 89.4287 37.1973C89.1787 36.9043 88.9873 36.5625 88.8545 36.1719C88.7217 35.7812 88.6553 35.3574 88.6553 34.9004ZM89.7393 34.7656V34.9004C89.7393 35.2168 89.7764 35.5156 89.8506 35.7969C89.9248 36.0742 90.0362 36.3203 90.1846 36.5352C90.337 36.75 90.5264 36.9199 90.753 37.0449C90.9795 37.166 91.2432 37.2266 91.544 37.2266C91.8409 37.2266 92.1006 37.166 92.3233 37.0449C92.5498 36.9199 92.7373 36.75 92.8858 36.5352C93.0342 36.3203 93.1455 36.0742 93.2198 35.7969C93.2979 35.5156 93.337 35.2168 93.337 34.9004V34.7656C93.337 34.4531 93.2979 34.1582 93.2198 33.8809C93.1455 33.5996 93.0323 33.3516 92.8799 33.1367C92.7315 32.918 92.544 32.7461 92.3174 32.6211C92.0948 32.4961 91.833 32.4336 91.5323 32.4336C91.2354 32.4336 90.9737 32.4961 90.7471 32.6211C90.5245 32.7461 90.337 32.918 90.1846 33.1367C90.0362 33.3516 89.9248 33.5996 89.8506 33.8809C89.7764 34.1582 89.7393 34.4531 89.7393 34.7656ZM97.2191 35.2402L94.8168 31.6602H96.1234L97.7641 34.2852H99.0297L98.8715 35.2402H97.2191ZM97.8109 35.1289L95.9711 38H94.6L97.1254 34.3438L97.8109 35.1289ZM99.5863 31.6602V38H98.5023V31.6602H99.5863ZM103.284 31.6602L100.881 35.2402H99.2289L99.059 34.2852H100.33L101.971 31.6602H103.284ZM102.123 38L100.278 35.1289L100.975 34.3438L103.495 38H102.123ZM108.437 34.4082V35.2871H105.086V34.4082H108.437ZM105.314 31.6602V38H104.23V31.6602H105.314ZM109.316 31.6602V38H108.226V31.6602H109.316ZM114.441 36.916V33.6523C114.441 33.4023 114.39 33.1855 114.288 33.002C114.191 32.8145 114.042 32.6699 113.843 32.5684C113.644 32.4668 113.398 32.416 113.105 32.416C112.831 32.416 112.591 32.4629 112.384 32.5566C112.181 32.6504 112.021 32.7734 111.903 32.9258C111.79 33.0781 111.734 33.2422 111.734 33.418H110.65C110.65 33.1914 110.708 32.9668 110.825 32.7441C110.942 32.5215 111.11 32.3203 111.329 32.1406C111.552 31.957 111.817 31.8125 112.126 31.707C112.439 31.5977 112.786 31.543 113.169 31.543C113.63 31.543 114.036 31.6211 114.388 31.7773C114.743 31.9336 115.021 32.1699 115.22 32.4863C115.423 32.7988 115.525 33.1914 115.525 33.6641V36.6172C115.525 36.8281 115.542 37.0527 115.577 37.291C115.616 37.5293 115.673 37.7344 115.747 37.9062V38H114.616C114.562 37.875 114.519 37.709 114.487 37.502C114.456 37.291 114.441 37.0957 114.441 36.916ZM114.628 34.1562L114.64 34.918H113.544C113.235 34.918 112.96 34.9434 112.718 34.9941C112.476 35.041 112.273 35.1133 112.109 35.2109C111.944 35.3086 111.819 35.4316 111.734 35.5801C111.648 35.7246 111.605 35.8945 111.605 36.0898C111.605 36.2891 111.65 36.4707 111.739 36.6348C111.829 36.7988 111.964 36.9297 112.144 37.0273C112.327 37.1211 112.552 37.168 112.817 37.168C113.15 37.168 113.442 37.0977 113.696 36.957C113.95 36.8164 114.151 36.6445 114.3 36.4414C114.452 36.2383 114.534 36.041 114.546 35.8496L115.009 36.3711C114.982 36.5352 114.907 36.7168 114.786 36.916C114.665 37.1152 114.503 37.3066 114.3 37.4902C114.101 37.6699 113.862 37.8203 113.585 37.9414C113.312 38.0586 113.003 38.1172 112.659 38.1172C112.23 38.1172 111.853 38.0332 111.528 37.8652C111.208 37.6973 110.958 37.4727 110.778 37.1914C110.603 36.9062 110.515 36.5879 110.515 36.2363C110.515 35.8965 110.581 35.5977 110.714 35.3398C110.847 35.0781 111.038 34.8613 111.288 34.6895C111.538 34.5137 111.839 34.3809 112.191 34.291C112.542 34.2012 112.935 34.1562 113.368 34.1562H114.628ZM121.853 34.9707H120.687V34.3027H121.765C122.066 34.3027 122.305 34.2656 122.48 34.1914C122.656 34.1133 122.781 34.0059 122.855 33.8691C122.93 33.7324 122.967 33.5723 122.967 33.3887C122.967 33.2246 122.924 33.0703 122.838 32.9258C122.756 32.7773 122.623 32.6582 122.439 32.5684C122.256 32.4746 122.01 32.4277 121.701 32.4277C121.451 32.4277 121.224 32.4727 121.021 32.5625C120.818 32.6484 120.656 32.7676 120.535 32.9199C120.418 33.0684 120.359 33.2363 120.359 33.4238H119.275C119.275 33.0371 119.385 32.7051 119.603 32.4277C119.826 32.1465 120.121 31.9297 120.488 31.7773C120.859 31.625 121.264 31.5488 121.701 31.5488C122.068 31.5488 122.396 31.5898 122.685 31.6719C122.978 31.75 123.226 31.8672 123.43 32.0234C123.633 32.1758 123.787 32.3672 123.892 32.5977C124.002 32.8242 124.056 33.0879 124.056 33.3887C124.056 33.6035 124.006 33.8066 123.904 33.998C123.803 34.1895 123.656 34.3594 123.465 34.5078C123.273 34.6523 123.041 34.7656 122.767 34.8477C122.498 34.9297 122.193 34.9707 121.853 34.9707ZM120.687 34.5605H121.853C122.232 34.5605 122.566 34.5977 122.855 34.6719C123.144 34.7422 123.387 34.8477 123.582 34.9883C123.777 35.1289 123.924 35.3027 124.021 35.5098C124.123 35.7129 124.174 35.9473 124.174 36.2129C124.174 36.5098 124.113 36.7773 123.992 37.0156C123.875 37.25 123.707 37.4492 123.488 37.6133C123.269 37.7773 123.008 37.9023 122.703 37.9883C122.402 38.0742 122.068 38.1172 121.701 38.1172C121.291 38.1172 120.892 38.0469 120.506 37.9062C120.119 37.7656 119.801 37.5488 119.551 37.2559C119.301 36.959 119.176 36.582 119.176 36.125H120.26C120.26 36.3164 120.32 36.498 120.441 36.6699C120.562 36.8418 120.73 36.9805 120.945 37.0859C121.164 37.1914 121.416 37.2441 121.701 37.2441C122.006 37.2441 122.26 37.1973 122.463 37.1035C122.666 37.0098 122.818 36.8848 122.92 36.7285C123.025 36.5723 123.078 36.4023 123.078 36.2188C123.078 35.9805 123.031 35.7891 122.937 35.6445C122.844 35.5 122.699 35.3945 122.504 35.3281C122.312 35.2578 122.066 35.2227 121.765 35.2227H120.687V34.5605ZM129.521 34.4082V35.2871H126.169V34.4082H129.521ZM126.398 31.6602V38H125.314V31.6602H126.398ZM130.4 31.6602V38H129.31V31.6602H130.4ZM135.524 36.916V33.6523C135.524 33.4023 135.473 33.1855 135.372 33.002C135.274 32.8145 135.126 32.6699 134.926 32.5684C134.727 32.4668 134.481 32.416 134.188 32.416C133.915 32.416 133.674 32.4629 133.467 32.5566C133.264 32.6504 133.104 32.7734 132.987 32.9258C132.874 33.0781 132.817 33.2422 132.817 33.418H131.733C131.733 33.1914 131.792 32.9668 131.909 32.7441C132.026 32.5215 132.194 32.3203 132.413 32.1406C132.635 31.957 132.901 31.8125 133.21 31.707C133.522 31.5977 133.87 31.543 134.253 31.543C134.713 31.543 135.12 31.6211 135.471 31.7773C135.827 31.9336 136.104 32.1699 136.303 32.4863C136.506 32.7988 136.608 33.1914 136.608 33.6641V36.6172C136.608 36.8281 136.626 37.0527 136.661 37.291C136.7 37.5293 136.756 37.7344 136.831 37.9062V38H135.7C135.645 37.875 135.602 37.709 135.571 37.502C135.54 37.291 135.524 37.0957 135.524 36.916ZM135.711 34.1562L135.723 34.918H134.628C134.319 34.918 134.044 34.9434 133.801 34.9941C133.559 35.041 133.356 35.1133 133.192 35.2109C133.028 35.3086 132.903 35.4316 132.817 35.5801C132.731 35.7246 132.688 35.8945 132.688 36.0898C132.688 36.2891 132.733 36.4707 132.823 36.6348C132.913 36.7988 133.047 36.9297 133.227 37.0273C133.411 37.1211 133.635 37.168 133.901 37.168C134.233 37.168 134.526 37.0977 134.78 36.957C135.034 36.8164 135.235 36.6445 135.383 36.4414C135.536 36.2383 135.618 36.041 135.629 35.8496L136.092 36.3711C136.065 36.5352 135.991 36.7168 135.87 36.916C135.749 37.1152 135.586 37.3066 135.383 37.4902C135.184 37.6699 134.946 37.8203 134.669 37.9414C134.395 38.0586 134.086 38.1172 133.743 38.1172C133.313 38.1172 132.936 38.0332 132.612 37.8652C132.292 37.6973 132.042 37.4727 131.862 37.1914C131.686 36.9062 131.598 36.5879 131.598 36.2363C131.598 35.8965 131.665 35.5977 131.797 35.3398C131.93 35.0781 132.122 34.8613 132.372 34.6895C132.622 34.5137 132.922 34.3809 133.274 34.291C133.626 34.2012 134.018 34.1562 134.452 34.1562H135.711ZM139.125 36.2832L142.049 31.6602H143.139V38H142.049V33.377L139.125 38H138.047V31.6602H139.125V36.2832ZM141.457 29.3633H142.336C142.336 29.668 142.266 29.9395 142.125 30.1777C141.984 30.4121 141.783 30.5957 141.521 30.7285C141.26 30.8613 140.949 30.9277 140.59 30.9277C140.047 30.9277 139.617 30.7832 139.301 30.4941C138.988 30.2012 138.832 29.8242 138.832 29.3633H139.711C139.711 29.5938 139.777 29.7969 139.91 29.9727C140.043 30.1484 140.269 30.2363 140.59 30.2363C140.902 30.2363 141.125 30.1484 141.258 29.9727C141.391 29.7969 141.457 29.5938 141.457 29.3633ZM147.103 31.6602V38H146.013V31.6602H147.103ZM149.23 31.6602V32.5391H143.927V31.6602H149.23ZM151.108 36.2832L154.032 31.6602H155.122V38H154.032V33.377L151.108 38H150.03V31.6602H151.108V36.2832Z" fill="#108E09"/>
</svg>
