<svg width="40" height="40" viewBox="0 0 40 40" fill="none" xmlns="http://www.w3.org/2000/svg">
<path d="M18.5855 28.577L18.5962 28.5831L6.89382 35.6276C5.73308 34.6033 4.69173 33.4471 3.79015 32.1818L11.5814 28.4546L0.196172 23.1304C-0.0365748 21.4434 -0.0623267 19.7336 0.119507 18.0402L18.6113 28.5623L18.5855 28.577Z" fill="#108E09"/>
<path d="M31.3952 7.52365C30.7658 6.04808 29.8575 4.71244 28.7218 3.5925C26.386 1.2857 23.2574 -0.00476074 20.0005 -0.00476074C16.7436 -0.00476074 13.615 1.2857 11.2793 3.5925C10.1434 4.71248 9.23481 6.04809 8.605 7.52365C7.95117 9.05576 7.61562 10.7086 7.61938 12.3786C7.61938 13.7146 7.80929 14.9806 8.1841 16.1412C8.54166 17.2378 9.06513 18.2712 9.73568 19.204C10.8882 20.8199 12.5219 22.285 14.874 23.8127L14.8797 23.8166L14.8858 23.8201L20 26.7962L25.1145 23.8201L25.1205 23.8166L25.1263 23.8127C27.4783 22.285 29.1111 20.8209 30.2646 19.204C30.9349 18.2711 31.4583 17.2378 31.8159 16.1412C32.1917 14.9806 32.3806 13.7146 32.3806 12.3786C32.3843 10.7086 32.0489 9.05581 31.3952 7.52365ZM20 22.7156C18.4369 21.9461 11.4817 18.1988 11.4817 12.4825C11.4817 7.84396 15.3833 3.92453 20.0015 3.92351H20.0033C24.6187 3.92351 28.5183 7.84473 28.5183 12.4825C28.5183 18.1955 21.5573 21.9486 20 22.7156Z" fill="#108E09"/>
<path d="M39.8038 23.1304L28.4191 28.4546L36.2104 32.1818C35.3086 33.4471 34.2672 34.6032 33.1064 35.6276L21.404 28.5829L21.4148 28.5768L21.3897 28.5615L39.8805 18.0402C40.0623 19.7336 40.0366 21.4434 39.8038 23.1304Z" fill="#108E09"/>
<path d="M28.7451 38.5591C27.4973 39.1767 26.1893 39.6596 24.8424 39.9997C23.8904 36.7693 21.0989 35.0111 20 34.4298C18.9011 35.0109 16.1096 36.7693 15.1576 40C13.8107 39.6596 12.5027 39.1767 11.2549 38.5591C11.5654 37.7364 12.0183 36.8625 12.565 36.0449C13.2132 35.0758 14.3002 33.7278 15.7982 32.8056C16.7783 32.2026 19.8269 30.4063 19.8569 30.3882L19.9995 30.3041L20.1421 30.3882C20.1726 30.4063 23.2212 32.2026 24.2008 32.8056C25.6988 33.7271 26.7858 35.0758 27.4342 36.0449C27.9819 36.8625 28.4346 37.7354 28.7451 38.5591Z" fill="#108E09"/>
</svg>
