<svg width="600" height="591" viewBox="0 0 600 591" fill="none" xmlns="http://www.w3.org/2000/svg">
<path d="M278.782 422.246L278.943 422.336L103.407 526.405C85.9963 511.273 70.3759 494.193 56.8522 475.499L173.721 420.436L2.94258 341.781C-0.548622 316.859 -0.934901 291.599 1.79261 266.582L279.169 422.028L278.782 422.246Z" fill="#108E09"/>
<path d="M470.929 111.219C461.487 89.42 447.862 69.6883 430.826 53.1431C395.79 19.0642 348.861 0 300.008 0C251.154 0 204.225 19.0642 169.189 53.1431C152.151 69.6889 138.522 89.4203 129.075 111.219C119.267 133.853 114.234 158.271 114.291 182.942C114.291 202.679 117.139 221.382 122.761 238.528C128.125 254.729 135.977 269.995 146.035 283.776C163.322 307.648 187.829 329.292 223.11 351.862L223.196 351.918L223.286 351.971L300 395.937L376.717 351.971L376.808 351.918L376.894 351.862C412.175 329.292 436.666 307.663 453.969 283.776C464.024 269.994 471.875 254.728 477.239 238.528C482.876 221.382 485.709 202.679 485.709 182.942C485.765 158.271 480.733 133.854 470.929 111.219ZM300 335.653C276.553 324.285 172.225 268.925 172.225 184.477C172.225 115.951 230.75 58.0483 300.023 58.0333H300.049C369.28 58.0333 427.775 115.962 427.775 184.477C427.775 268.876 323.36 324.323 300 335.653Z" fill="#108E09"/>
<path d="M597.057 341.781L426.286 420.436L543.155 475.499C529.629 494.192 514.008 511.272 496.596 526.405L321.06 422.332L321.222 422.242L320.846 422.016L598.207 266.582C600.935 291.599 600.549 316.859 597.057 341.781Z" fill="#108E09"/>
<path d="M431.176 569.713C412.46 578.837 392.839 585.971 372.636 590.996C358.355 543.272 316.483 517.298 300 508.711C283.517 517.295 241.645 543.272 227.364 591C207.161 585.972 187.541 578.837 168.824 569.713C173.48 557.559 180.275 544.649 188.475 532.571C198.197 518.254 214.504 498.34 236.973 484.715C251.675 475.808 297.403 449.269 297.854 449.002L299.992 447.761L302.131 449.002C302.589 449.269 348.318 475.808 363.012 484.715C385.481 498.328 401.788 518.254 411.514 532.571C419.729 544.649 426.52 557.544 431.176 569.713Z" fill="#108E09"/>
</svg>
