<svg width="157" height="78" viewBox="0 0 157 78" fill="none" xmlns="http://www.w3.org/2000/svg">
<path d="M76.5855 28.5818L76.5962 28.5879L64.8938 35.6323C63.7331 34.6081 62.6917 33.4519 61.7901 32.1865L69.5814 28.4593L58.1962 23.1351C57.9634 21.4481 57.9377 19.7383 58.1195 18.0449L76.6113 28.567L76.5855 28.5818Z" fill="#108E09"/>
<path d="M89.3952 7.52841C88.7658 6.05284 87.8575 4.7172 86.7218 3.59726C84.386 1.29046 81.2574 0 78.0005 0C74.7436 0 71.615 1.29046 69.2793 3.59726C68.1434 4.71724 67.2348 6.05285 66.605 7.52841C65.9512 9.06052 65.6156 10.7133 65.6194 12.3833C65.6194 13.7193 65.8093 14.9853 66.1841 16.1459C66.5417 17.2426 67.0651 18.2759 67.7357 19.2088C68.8882 20.8247 70.5219 22.2898 72.874 23.8175L72.8797 23.8213L72.8858 23.8249L78 26.8009L83.1145 23.8249L83.1205 23.8213L83.1263 23.8175C85.4783 22.2898 87.1111 20.8257 88.2646 19.2088C88.9349 18.2759 89.4583 17.2425 89.8159 16.1459C90.1917 14.9853 90.3806 13.7193 90.3806 12.3833C90.3843 10.7134 90.0489 9.06057 89.3952 7.52841ZM78 22.7203C76.4369 21.9509 69.4817 18.2035 69.4817 12.4872C69.4817 7.84872 73.3833 3.92929 78.0015 3.92827H78.0033C82.6187 3.92827 86.5183 7.84949 86.5183 12.4872C86.5183 18.2002 79.5573 21.9534 78 22.7203Z" fill="#108E09"/>
<path d="M97.8038 23.1351L86.4191 28.4593L94.2104 32.1865C93.3086 33.4518 92.2672 34.608 91.1064 35.6323L79.404 28.5876L79.4148 28.5815L79.3897 28.5663L97.8805 18.0449C98.0623 19.7383 98.0366 21.4481 97.8038 23.1351Z" fill="#108E09"/>
<path d="M86.7451 38.5638C85.4973 39.1815 84.1893 39.6643 82.8424 40.0045C81.8904 36.7741 79.0989 35.0159 78 34.4346C76.9011 35.0156 74.1096 36.7741 73.1576 40.0048C71.8107 39.6644 70.5027 39.1814 69.2549 38.5638C69.5654 37.7411 70.0183 36.8673 70.565 36.0497C71.2132 35.0806 72.3002 33.7326 73.7982 32.8103C74.7783 32.2074 77.8269 30.411 77.8569 30.3929L77.9995 30.3089L78.1421 30.3929C78.1726 30.411 81.2212 32.2074 82.2008 32.8103C83.6988 33.7318 84.7858 35.0806 85.4342 36.0497C85.9819 36.8673 86.4346 37.7401 86.7451 38.5638Z" fill="#108E09"/>
<path d="M1.30812 77L1.34012 54.6H9.78812C13.0521 54.6 14.4601 56.328 14.4601 58.792V61.032C14.3321 64.712 13.3721 66.856 12.0601 68.2C13.2441 69.48 14.2041 71.08 14.3001 72.808C14.3001 75.624 13.0521 77 9.62812 77H1.30812ZM5.72412 70.792L5.75612 72.84H9.37212C9.91612 72.84 10.1401 72.52 10.1401 72.104C10.1401 71.176 9.62812 70.536 8.92412 70.056C7.83612 70.376 6.74812 70.568 5.72412 70.792ZM5.78812 66.568C8.73212 66.024 10.3001 65.256 10.3001 61.032C10.3001 60.2 10.4281 58.856 9.53212 58.76H5.82012L5.78812 66.568ZM21.8269 54.6H34.1149V58.44H26.3069V63.24C28.2589 62.536 30.6589 62.376 33.2189 62.536V66.664C30.9789 66.504 28.0989 66.6 26.3069 67.656V73.16H34.1789V77H21.8269V54.6ZM41.5331 54.6H46.0131C46.0131 54.6 48.2531 60.424 50.3331 66.152L50.3971 63.176L50.1731 54.664H54.6531V77.064H53.8851C53.8851 77.096 53.8851 77.128 53.8531 77.128L51.9971 77.064H50.1731V77H50.1411L46.0131 65.608V77H41.5331V54.6ZM62.0206 54.6H74.3086V58.44H66.5006V63.24C68.4526 62.536 70.8526 62.376 73.4126 62.536V66.664C71.1726 66.504 68.2926 66.6 66.5006 67.656V73.16H74.3726V77H62.0206V54.6ZM94.8789 54.6V58.44H90.2069V77H85.7269V58.44H81.0869V54.6H94.8789ZM114.741 54.6V58.44H110.069V77H105.589V58.44H100.949V54.6H114.741ZM127.884 57.832C125.804 57.832 125.9 60.232 125.932 61.352V61.64V70.024C125.932 70.952 125.932 73.832 127.884 73.832H128.524C130.732 73.832 130.732 70.952 130.732 70.024V61.64V61.384C130.764 60.296 130.86 57.832 128.524 57.832H127.884ZM121.452 70.344V61.32C121.452 58.184 122.7 54.376 127.436 54.376H129.228C133.964 54.376 135.212 58.184 135.212 61.32V70.344C135.212 73.48 133.964 77.288 129.228 77.288H127.436C122.7 77.288 121.452 73.48 121.452 70.344ZM142.564 54.6H147.044C147.044 54.6 149.284 60.424 151.364 66.152L151.428 63.176L151.204 54.664H155.684V77.064H154.916C154.916 77.096 154.916 77.128 154.884 77.128L153.028 77.064H151.204V77H151.172L147.044 65.608V77H142.564V54.6Z" fill="#108E09"/>
</svg>
